<svg width="400" height="500" viewBox="0 0 400 500" fill="none" xmlns="http://www.w3.org/2000/svg">
  <!-- Background -->
  <rect width="400" height="500" fill="#F8F9FA"/>
  
  <!-- Left Column (Blue) -->
  <rect width="140" height="500" fill="#1E40AF"/>
  
  <!-- Profile Image Circle -->
  <circle cx="70" cy="80" r="30" fill="white"/>
  <circle cx="70" cy="80" r="25" fill="#E5E7EB"/>
  
  <!-- Contact Section -->
  <rect x="20" y="130" width="100" height="8" rx="2" fill="white"/>
  <rect x="20" y="150" width="80" height="4" rx="1" fill="#93C5FD"/>
  <rect x="20" y="160" width="90" height="4" rx="1" fill="#93C5FD"/>
  <rect x="20" y="170" width="85" height="4" rx="1" fill="#93C5FD"/>
  <rect x="20" y="180" width="75" height="4" rx="1" fill="#93C5FD"/>
  
  <!-- Skills Section -->
  <rect x="20" y="220" width="60" height="8" rx="2" fill="white"/>
  <circle cx="25" cy="245" r="2" fill="white"/>
  <rect x="32" y="242" width="60" height="4" rx="1" fill="#93C5FD"/>
  <circle cx="25" cy="255" r="2" fill="white"/>
  <rect x="32" y="252" width="55" height="4" rx="1" fill="#93C5FD"/>
  <circle cx="25" cy="265" r="2" fill="white"/>
  <rect x="32" y="262" width="65" height="4" rx="1" fill="#93C5FD"/>
  <circle cx="25" cy="275" r="2" fill="white"/>
  <rect x="32" y="272" width="50" height="4" rx="1" fill="#93C5FD"/>
  
  <!-- Awards Section -->
  <rect x="20" y="310" width="50" height="8" rx="2" fill="white"/>
  <circle cx="25" cy="335" r="2" fill="white"/>
  <rect x="32" y="332" width="70" height="4" rx="1" fill="#93C5FD"/>
  <rect x="32" y="340" width="60" height="3" rx="1" fill="#93C5FD"/>
  
  <!-- Languages Section -->
  <rect x="20" y="380" width="65" height="8" rx="2" fill="white"/>
  <rect x="20" y="405" width="80" height="4" rx="1" fill="#93C5FD"/>
  <rect x="20" y="415" width="100" height="3" rx="1" fill="#60A5FA"/>
  <rect x="20" y="430" width="70" height="4" rx="1" fill="#93C5FD"/>
  <rect x="20" y="440" width="90" height="3" rx="1" fill="#60A5FA"/>
  
  <!-- Right Column (White) -->
  <rect x="140" y="0" width="260" height="500" fill="white"/>
  
  <!-- Header Section -->
  <rect x="140" y="0" width="260" height="120" fill="#F1F5F9"/>
  
  <!-- Name -->
  <rect x="160" y="40" width="120" height="12" rx="2" fill="#1E40AF"/>
  <rect x="160" y="58" width="80" height="8" rx="2" fill="#64748B"/>
  
  <!-- About Me Section -->
  <rect x="160" y="140" width="80" height="10" rx="2" fill="#1E40AF"/>
  <rect x="160" y="145" width="200" height="2" rx="1" fill="#1E40AF"/>
  
  <rect x="160" y="165" width="200" height="3" rx="1" fill="#64748B"/>
  <rect x="160" y="172" width="180" height="3" rx="1" fill="#64748B"/>
  <rect x="160" y="179" width="190" height="3" rx="1" fill="#64748B"/>
  <rect x="160" y="186" width="170" height="3" rx="1" fill="#64748B"/>
  
  <!-- Education Section -->
  <rect x="160" y="210" width="70" height="10" rx="2" fill="#1E40AF"/>
  <rect x="160" y="215" width="200" height="2" rx="1" fill="#1E40AF"/>
  
  <!-- Education Item 1 -->
  <circle cx="165" cy="240" r="3" fill="#1E40AF"/>
  <rect x="175" y="235" width="100" height="6" rx="1" fill="#374151"/>
  <rect x="175" y="245" width="120" height="4" rx="1" fill="#64748B"/>
  <rect x="175" y="252" width="80" height="3" rx="1" fill="#9CA3AF"/>
  
  <!-- Education Item 2 -->
  <circle cx="165" cy="275" r="3" fill="#1E40AF"/>
  <rect x="175" y="270" width="90" height="6" rx="1" fill="#374151"/>
  <rect x="175" y="280" width="110" height="4" rx="1" fill="#64748B"/>
  <rect x="175" y="287" width="70" height="3" rx="1" fill="#9CA3AF"/>
  
  <!-- Experience Section -->
  <rect x="160" y="310" width="80" height="10" rx="2" fill="#1E40AF"/>
  <rect x="160" y="315" width="200" height="2" rx="1" fill="#1E40AF"/>
  
  <!-- Experience Item 1 -->
  <circle cx="165" cy="340" r="3" fill="#1E40AF"/>
  <rect x="175" y="335" width="90" height="6" rx="1" fill="#374151"/>
  <rect x="175" y="345" width="130" height="4" rx="1" fill="#64748B"/>
  <rect x="175" y="352" width="75" height="3" rx="1" fill="#9CA3AF"/>
  
  <!-- Experience Item 2 -->
  <circle cx="165" cy="375" r="3" fill="#1E40AF"/>
  <rect x="175" y="370" width="85" height="6" rx="1" fill="#374151"/>
  <rect x="175" y="380" width="125" height="4" rx="1" fill="#64748B"/>
  <rect x="175" y="387" width="80" height="3" rx="1" fill="#9CA3AF"/>
</svg>