<svg width="400" height="500" viewBox="0 0 400 500" fill="none" xmlns="http://www.w3.org/2000/svg">
  <!-- Background -->
  <rect width="400" height="500" fill="#E5E7EB"/>
  
  <!-- Left Column (Dark Blue/Gray) -->
  <rect width="140" height="500" fill="#374151"/>
  
  <!-- Yellow diagonal corner (top right) -->
  <polygon points="140,0 140,50 90,0" fill="#F59E0B"/>
  
  <!-- Profile Image Circle -->
  <circle cx="70" cy="80" r="30" fill="white"/>
  <circle cx="70" cy="80" r="25" fill="#E5E7EB"/>
  
  <!-- Contact Me Section -->
  <rect x="20" y="130" width="80" height="8" rx="2" fill="#F59E0B"/>
  <rect x="20" y="150" width="12" height="4" rx="1" fill="#F59E0B"/>
  <rect x="35" y="150" width="70" height="4" rx="1" fill="white"/>
  <rect x="20" y="160" width="12" height="4" rx="1" fill="#F59E0B"/>
  <rect x="35" y="160" width="80" height="4" rx="1" fill="white"/>
  <rect x="20" y="170" width="12" height="4" rx="1" fill="#F59E0B"/>
  <rect x="35" y="170" width="75" height="4" rx="1" fill="white"/>
  <rect x="20" y="180" width="12" height="4" rx="1" fill="#F59E0B"/>
  <rect x="35" y="180" width="65" height="4" rx="1" fill="white"/>
  
  <!-- References Section -->
  <rect x="20" y="220" width="70" height="8" rx="2" fill="#F59E0B"/>
  <rect x="20" y="245" width="12" height="4" rx="1" fill="#F59E0B"/>
  <rect x="35" y="242" width="60" height="4" rx="1" fill="white"/>
  <rect x="35" y="250" width="50" height="3" rx="1" fill="#D1D5DB"/>
  <rect x="35" y="256" width="55" height="3" rx="1" fill="#D1D5DB"/>
  
  <rect x="20" y="275" width="12" height="4" rx="1" fill="#F59E0B"/>
  <rect x="35" y="272" width="65" height="4" rx="1" fill="white"/>
  <rect x="35" y="280" width="45" height="3" rx="1" fill="#D1D5DB"/>
  <rect x="35" y="286" width="60" height="3" rx="1" fill="#D1D5DB"/>
  
  <!-- Education Section -->
  <rect x="20" y="320" width="65" height="8" rx="2" fill="#F59E0B"/>
  <rect x="20" y="345" width="12" height="4" rx="1" fill="#F59E0B"/>
  <rect x="35" y="342" width="70" height="4" rx="1" fill="white"/>
  <rect x="35" y="350" width="80" height="3" rx="1" fill="#D1D5DB"/>
  <rect x="35" y="356" width="60" height="3" rx="1" fill="#D1D5DB"/>
  
  <rect x="20" y="375" width="12" height="4" rx="1" fill="#F59E0B"/>
  <rect x="35" y="372" width="75" height="4" rx="1" fill="white"/>
  <rect x="35" y="380" width="70" height="3" rx="1" fill="#D1D5DB"/>
  <rect x="35" y="386" width="55" height="3" rx="1" fill="#D1D5DB"/>
  
  <!-- Right Column (Light Gray) -->
  <rect x="140" y="0" width="260" height="500" fill="#F3F4F6"/>
  
  <!-- Yellow diagonal corner (bottom right) -->
  <polygon points="400,500 400,450 350,500" fill="#F59E0B"/>
  
  <!-- Header Section -->
  <rect x="140" y="0" width="260" height="100" fill="#F9FAFB"/>
  
  <!-- Yellow accent bar -->
  <rect x="160" y="40" width="4" height="30" fill="#F59E0B"/>
  
  <!-- Name -->
  <rect x="170" y="40" width="80" height="12" rx="2" fill="#374151"/>
  <rect x="255" y="40" width="40" height="12" rx="2" fill="#F59E0B"/>
  <rect x="170" y="58" width="100" height="8" rx="2" fill="#6B7280"/>
  
  <!-- About Me Section -->
  <rect x="160" y="120" width="4" height="30" fill="#F59E0B"/>
  <rect x="170" y="130" width="12" height="6" rx="1" fill="#F59E0B"/>
  <rect x="190" y="130" width="60" height="10" rx="2" fill="#374151"/>
  
  <rect x="170" y="155" width="200" height="3" rx="1" fill="#6B7280"/>
  <rect x="170" y="162" width="180" height="3" rx="1" fill="#6B7280"/>
  <rect x="170" y="169" width="190" height="3" rx="1" fill="#6B7280"/>
  <rect x="170" y="176" width="170" height="3" rx="1" fill="#6B7280"/>
  <rect x="170" y="183" width="160" height="3" rx="1" fill="#6B7280"/>
  
  <!-- Job Experience Section -->
  <rect x="160" y="210" width="4" height="30" fill="#F59E0B"/>
  <rect x="170" y="220" width="12" height="6" rx="1" fill="#F59E0B"/>
  <rect x="190" y="220" width="90" height="10" rx="2" fill="#374151"/>
  
  <!-- Experience Item 1 -->
  <circle cx="175" cy="255" r="3" fill="#F59E0B"/>
  <rect x="185" y="250" width="100" height="6" rx="1" fill="#374151"/>
  <rect x="185" y="260" width="120" height="4" rx="1" fill="#6B7280"/>
  <rect x="185" y="267" width="80" height="3" rx="1" fill="#9CA3AF"/>
  <rect x="320" y="250" width="50" height="4" rx="1" fill="#9CA3AF"/>
  
  <!-- Experience Item 2 -->
  <circle cx="175" cy="290" r="3" fill="#F59E0B"/>
  <rect x="185" y="285" width="90" height="6" rx="1" fill="#374151"/>
  <rect x="185" y="295" width="110" height="4" rx="1" fill="#6B7280"/>
  <rect x="185" y="302" width="75" height="3" rx="1" fill="#9CA3AF"/>
  <rect x="320" y="285" width="45" height="4" rx="1" fill="#9CA3AF"/>
  
  <!-- Skills Section -->
  <rect x="160" y="330" width="4" height="30" fill="#F59E0B"/>
  <rect x="170" y="340" width="12" height="6" rx="1" fill="#F59E0B"/>
  <rect x="190" y="340" width="40" height="10" rx="2" fill="#374151"/>
  
  <!-- Skills Grid -->
  <!-- Row 1 -->
  <rect x="170" y="370" width="80" height="4" rx="1" fill="#374151"/>
  <rect x="170" y="378" width="60" height="2" rx="1" fill="#F59E0B"/>
  <rect x="270" y="370" width="70" height="4" rx="1" fill="#374151"/>
  <rect x="270" y="378" width="50" height="2" rx="1" fill="#F59E0B"/>
  
  <!-- Row 2 -->
  <rect x="170" y="390" width="75" height="4" rx="1" fill="#374151"/>
  <rect x="170" y="398" width="55" height="2" rx="1" fill="#F59E0B"/>
  <rect x="270" y="390" width="65" height="4" rx="1" fill="#374151"/>
  <rect x="270" y="398" width="45" height="2" rx="1" fill="#F59E0B"/>
  
  <!-- Row 3 -->
  <rect x="170" y="410" width="70" height="4" rx="1" fill="#374151"/>
  <rect x="170" y="418" width="50" height="2" rx="1" fill="#F59E0B"/>
  <rect x="270" y="410" width="60" height="4" rx="1" fill="#374151"/>
  <rect x="270" y="418" width="40" height="2" rx="1" fill="#F59E0B"/>
  
  <!-- Row 4 -->
  <rect x="170" y="430" width="65" height="4" rx="1" fill="#374151"/>
  <rect x="170" y="438" width="45" height="2" rx="1" fill="#F59E0B"/>
  <rect x="270" y="430" width="55" height="4" rx="1" fill="#374151"/>
  <rect x="270" y="438" width="35" height="2" rx="1" fill="#F59E0B"/>
</svg>