<svg width="800" height="600" xmlns="http://www.w3.org/2000/svg">
  <!-- Main Background -->
  <rect width="100%" height="100%" fill="#ffffff"/>
  
  <!-- Template Layout -->
  <rect x="0" y="0" width="300" height="600" fill="#333333"/>
  <rect x="300" y="0" width="500" height="600" fill="#ffffff"/>
  
  <!-- Yellow Accents -->
  <polygon points="0,0 300,0 0,150" fill="#ffc107"/>
  <polygon points="800,600 800,450 650,600" fill="#ffc107"/>
  
  <!-- Left Column Content -->
  <circle cx="150" cy="120" r="60" fill="#ffffff" stroke="#ffc107" stroke-width="4"/>
  
  <!-- Contact Section -->
  <rect x="50" y="220" width="10" height="30" fill="#ffc107"/>
  <text x="70" y="240" font-family="Arial" font-size="16" fill="#ffffff" font-weight="bold">CONTACT ME</text>
  
  <!-- Contact Items -->
  <circle cx="65" y="270" r="3" fill="#ffc107"/>
  <rect x="80" y="265" width="170" height="10" fill="#555555"/>
  
  <circle cx="65" y="300" r="3" fill="#ffc107"/>
  <rect x="80" y="295" width="170" height="10" fill="#555555"/>
  
  <circle cx="65" y="330" r="3" fill="#ffc107"/>
  <rect x="80" y="325" width="170" height="10" fill="#555555"/>
  
  <!-- References Section -->
  <rect x="50" y="380" width="10" height="30" fill="#ffc107"/>
  <text x="70" y="400" font-family="Arial" font-size="16" fill="#ffffff" font-weight="bold">REFERENCES</text>
  
  <!-- Reference Items -->
  <circle cx="65" y="430" r="3" fill="#ffc107"/>
  <rect x="80" y="425" width="170" height="10" fill="#555555"/>
  <rect x="80" y="440" width="140" height="8" fill="#444444"/>
  
  <!-- Right Column Content -->
  <!-- Header Area -->
  <rect x="300" y="0" width="500" height="120" fill="#f5f5f5"/>
  <rect x="320" y="50" width="5" height="60" fill="#ffc107"/>
  <text x="340" y="70" font-family="Arial" font-size="30" fill="#333333" font-weight="bold">BRIAN R.</text>
  <text x="470" y="70" font-family="Arial" font-size="30" fill="#ffc107" font-weight="bold">BAXTER</text>
  <text x="340" y="100" font-family="Arial" font-size="14" fill="#666666">GRAPHIC & WEB DESIGNER</text>
  
  <!-- About Section -->
  <rect x="320" y="150" width="10" height="30" fill="#ffc107"/>
  <text x="340" y="170" font-family="Arial" font-size="16" fill="#333333" font-weight="bold">ABOUT ME</text>
  <rect x="340" y="190" width="440" height="60" fill="#f9f9f9"/>
  
  <!-- Experience Section -->
  <rect x="320" y="280" width="10" height="30" fill="#ffc107"/>
  <text x="340" y="300" font-family="Arial" font-size="16" fill="#333333" font-weight="bold">JOB EXPERIENCE</text>
  
  <!-- Job Items -->
  <circle cx="325" y="340" r="3" fill="#ffc107"/>
  <rect x="340" y="330" width="200" height="14" fill="#444444"/>
  <rect x="340" y="350" width="440" height="30" fill="#f9f9f9"/>
  
  <circle cx="325" y="400" r="3" fill="#ffc107"/>
  <rect x="340" y="390" width="200" height="14" fill="#444444"/>
  <rect x="340" y="410" width="440" height="30" fill="#f9f9f9"/>
  
  <!-- Skills Section -->
  <rect x="320" y="470" width="10" height="30" fill="#ffc107"/>
  <text x="340" y="490" font-family="Arial" font-size="16" fill="#333333" font-weight="bold">SKILLS</text>
  
  <!-- Skill Bars -->
  <rect x="340" y="510" width="200" height="12" fill="#eeeeee" rx="6" ry="6"/>
  <rect x="340" y="510" width="150" height="12" fill="#ffc107" rx="6" ry="6"/>
  
  <rect x="340" y="540" width="200" height="12" fill="#eeeeee" rx="6" ry="6"/>
  <rect x="340" y="540" width="180" height="12" fill="#ffc107" rx="6" ry="6"/>
</svg>